<svg width="831" height="107" viewBox="0 0 831 107" fill="none" xmlns="http://www.w3.org/2000/svg">
<g clip-path="url(#clip0_1416_336)">
<path d="M62.38 25.7432L68.4599 25.7161L68.4563 83.0229L98.1531 83.0138L98.1142 88.1848C86.2525 88.6128 74.2358 88.2219 62.3568 88.231L62.38 25.7432Z" fill="#1B0C58"/>
<path d="M29.3305 24.5747C35.3907 24.2757 41.7421 24.5081 47.564 26.3906C49.1051 26.8889 49.9982 27.3765 50.7335 28.8085C50.8973 30.4427 49.9795 32.0066 49.3159 33.4529C44.0769 31.0227 38.6836 29.5182 32.8723 29.8855C27.0299 30.2547 21.6477 32.5735 17.7506 37.014C12.2403 43.2925 10.9181 51.9789 11.4511 60.063C11.9253 67.2526 14.1334 74.298 19.7041 79.167C25.6611 84.3742 32.3846 84.2654 39.8622 83.7575C43.3851 83.3032 46.662 82.1995 49.9296 80.8429C50.4943 82.5487 51.2478 84.2246 51.9142 85.8959C49.3492 87.1202 46.6765 88.0271 43.8961 88.6165C35.5248 90.4638 25.7001 90.1963 18.3066 85.4334C11.5602 81.0877 7.42151 73.753 5.75074 66.0274C3.64993 56.3142 5.00459 45.2178 10.449 36.7859C14.9743 29.7776 21.3538 26.3058 29.3305 24.5747Z" fill="#1B0C58"/>
<path d="M198.213 25.6765L204.75 25.7283C204.809 25.9313 204.83 26.1283 204.836 26.3396C204.886 28.1182 203.942 30.2836 202.75 31.5774C202.875 31.9618 202.872 32.3223 202.83 32.7212C202.34 37.4803 182.903 85.9883 180.27 88.2183L174.704 88.2192C174.691 85.3707 172.51 81.8349 171.362 79.2331C163.71 61.8974 156.594 43.7917 150.984 25.7056L157.63 25.7064C159.918 30.7329 161.42 36.4846 163.248 41.7216C166.692 51.7504 170.393 61.6839 174.349 71.522C175.312 73.9043 177.797 78.3589 177.472 80.84C177.682 80.6822 177.864 80.5099 178.052 80.3277C178.433 79.9613 178.766 79.5804 179.023 79.1152C182.32 73.1453 199.051 28.6505 198.213 25.6765Z" fill="#1B0C58"/>
<path d="M107.923 25.71L144.156 25.7145L144.148 30.9301L114.021 30.9264L114.013 52.6502C120.105 52.6171 135.072 51.6477 140.27 52.9873C140.953 54.434 140.748 56.254 140.727 57.8216C131.832 57.9795 122.912 57.8493 114.016 57.8561L114.018 63.5978L114.021 83.0156L146.366 83.0192C146.414 84.7459 146.441 86.332 146.044 88.0315C134.353 89.0227 119.87 88.2292 107.88 88.2174L107.923 25.71Z" fill="#1B0C58"/>
<path d="M213.913 26.0029C217.233 25.3505 247.788 25.2456 250.265 26.0268C250.358 26.2329 250.435 26.4447 250.496 26.6622C250.867 27.9304 250.64 29.7893 249.983 30.9314L219.931 30.9177C220.21 31.3468 220.433 31.8212 220.552 32.3198C221.219 35.0934 221.238 50.4414 219.941 52.6478C227.818 52.739 236.063 51.9167 243.884 52.6807C245.118 52.8012 246.543 52.961 247.381 53.977C247.499 55.0897 247.32 56.0918 247.13 57.1841C245.439 58.6549 223.722 57.8707 219.956 57.8652C220.219 58.2887 220.412 58.7191 220.546 59.2001C220.993 60.7947 220.748 62.4216 219.953 63.8508C220.227 64.2417 220.453 64.6924 220.549 65.1631C221.089 67.8084 221.234 81.0522 219.961 83.0238C226.216 83.012 248.287 82.2148 252.686 83.304C252.823 83.5531 252.93 83.8143 253.009 84.0875C253.374 85.3199 253.089 87.0992 252.482 88.2201L213.696 88.2219C213.789 88.0877 213.873 87.9508 213.948 87.8039C214.807 86.1316 214.706 28.4792 213.913 26.0029Z" fill="#1B0C58"/>
<path d="M277.695 25.1447C283.336 24.3877 290.841 25.4559 295.997 27.8228C300.36 29.8256 303.78 33.2582 305.437 37.799C307.025 42.1479 307.117 47.5724 305.121 51.7927C302.692 56.9278 297.592 59.7418 292.454 61.5519C294.371 62.5902 296.077 65.3743 297.355 67.1255C299.905 70.6187 309.964 84.511 309.388 88.2083L302.996 88.2364C303.018 88.0867 303.026 87.9834 303.011 87.8328C302.758 85.1712 297.654 77.2515 295.468 75.4822C295.462 75.3734 295.454 75.2691 295.435 75.1612C295.098 73.2486 288.124 63.9669 286.343 62.7435C280.941 63.0355 275.535 63.1489 270.126 63.0836C270.298 63.3502 270.456 63.6467 270.552 63.9496C271.354 66.4707 271.088 86.1878 270.042 88.2074L263.896 88.2201C264.126 87.8821 264.3 87.5175 264.418 87.1264C265.274 84.2271 264.881 34.025 264.599 28.2187C264.572 27.6644 264.409 27.2045 264.136 26.7215C268.563 25.7587 273.185 25.484 277.695 25.1447Z" fill="#1B0C58"/>
<path d="M272.938 30.7382C279.184 30.3265 286.256 29.858 292.181 32.1881C295.326 33.425 297.622 35.6471 298.951 38.7631C300.411 42.1866 300.478 46.5826 299.069 50.0345C298.049 52.5306 296.458 54.1015 293.988 55.1345C293.881 55.27 293.771 55.3999 293.644 55.5174C290.458 58.4792 274.958 57.651 270.124 57.6257C272.47 53.9243 269.002 35.186 271.087 31.5442C271.451 30.9084 272.259 30.9006 272.938 30.7382Z" fill="#EBEBE2"/>
<path d="M4.79675 -0.0675773C38.972 -0.432681 73.1883 -0.085352 107.367 -0.0861682L309.483 -0.0897072C309.733 0.286189 309.905 0.676415 310.022 1.11216C310.529 2.98702 310.459 4.93886 309.495 6.64631C307.777 7.37044 248.871 6.81499 242.194 6.81399L4.79041 6.84337L4.79675 -0.0675773Z" fill="#1B0C58"/>
<path d="M327.204 0.190978C331.486 -0.571061 336.606 -0.0883368 340.99 -0.0843466L367.813 -0.05179L465.139 -0.0590444L829.994 -0.0475246C830.322 0.469661 830.582 1.07363 830.662 1.68413C831.155 5.41779 830.743 9.7371 830.745 13.5171L830.753 39.5536L830.75 86.936C830.747 94.9917 831.013 103.141 830.708 111.183C830.672 112.16 830.523 112.896 829.929 113.698C828.041 114.406 734.776 113.84 722.912 113.839L327.083 113.853C327.151 113.684 327.203 113.514 327.258 113.341C328.331 109.99 328.116 2.58528 327.204 0.190978Z" fill="#1B0C58"/>
<path d="M664.169 26.0056C667.709 25.4042 671.527 25.6908 675.112 25.7152C675.418 26.1992 675.66 26.7497 675.766 27.3147C676.601 31.8266 675.894 41.3472 675.898 46.5014C675.907 59.4536 676.583 72.8315 675.824 85.738C675.775 86.585 675.572 87.257 675.092 87.9598C673.275 88.8703 666.147 88.2536 663.792 88.2409C663.874 88.114 663.953 87.987 664.024 87.8528C664.4 87.1436 664.517 86.4617 664.554 85.6682C665.077 74.1963 664.615 62.4977 664.61 51.0051C664.607 45.963 665.435 30.1972 664.169 26.0056Z" fill="#EBEBE2"/>
<path d="M585.358 26.0056C588.945 25.4171 592.783 25.6891 596.412 25.7133C596.484 25.839 596.488 25.8381 596.541 25.9545C596.564 26.0023 596.584 26.051 596.605 26.0989C596.749 26.4152 596.881 26.7378 596.961 27.0769C597.429 29.0709 597.338 85.7344 596.942 86.8825C596.826 87.2208 596.485 87.6434 596.294 87.9599C593.51 88.9946 588.152 88.2564 585.107 88.2392C585.192 88.114 585.195 88.1159 585.261 87.9989C585.858 86.9496 586.447 29.7295 585.358 26.0056Z" fill="#EBEBE2"/>
<path d="M605.414 26.0057C610.188 24.9735 616.543 25.6725 621.454 25.6752L655.326 25.7111C655.569 26.0677 655.767 26.4712 655.86 26.8949C656.326 29.0071 656.437 33.6165 655.256 35.4129L635.788 35.4031C636.024 35.7785 636.22 36.1951 636.316 36.6297C637.017 39.7873 636.933 66.732 635.713 68.5993C635.954 68.9711 636.163 69.3855 636.282 69.8136C636.983 72.3401 636.846 86.1245 635.693 88.2166L624.427 88.2338C624.551 88.0476 624.658 87.8526 624.749 87.6489C625.639 85.6828 625.657 38.2738 624.575 35.4144L605.227 35.4133C605.348 35.241 605.464 35.0599 605.544 34.8647C606.286 33.0722 606.122 27.793 605.414 26.0057Z" fill="#EBEBE2"/>
<path d="M468.549 26.0056C473.154 24.8618 479.911 25.6636 484.693 25.6697L518.599 25.7324C518.776 26.0031 518.931 26.2868 519.009 26.6028C519.521 28.6328 519.56 33.6707 518.495 35.419L499.209 35.3822C499.448 35.833 499.637 36.3203 499.736 36.8221C500.403 40.2064 500.423 67.0531 499.134 69.0292C499.405 69.4482 499.625 69.9125 499.741 70.3995C500.34 72.8988 500.302 86.3576 499.141 88.2411L487.835 88.2157C487.904 88.0978 487.912 88.0915 487.964 87.9809C487.986 87.9337 488.006 87.8856 488.027 87.8394C488.131 87.6081 488.222 87.3778 488.302 87.1366C489.064 84.8277 488.763 42.9233 488.44 37.5813C488.394 36.8239 488.194 36.1505 487.864 35.4699C481.443 35.1065 474.848 35.4046 468.408 35.3958C468.504 35.2599 468.592 35.1232 468.665 34.9738C469.562 33.1507 469.166 27.9341 468.549 26.0056Z" fill="#EBEBE2"/>
<path d="M411.038 26.0055C414.658 25.4216 418.503 25.6886 422.164 25.719C425.165 30.3867 419.701 64.571 425.53 74.4005C426.996 76.8717 429.371 78.5104 432.14 79.2024C435.744 80.1038 439.975 79.6622 443.177 77.7342C445.617 76.2659 448.037 73.5925 448.698 70.7576C449.663 66.6115 449.969 27.8248 448.64 25.725L460.065 25.7226C460.35 26.1302 460.584 26.5962 460.697 27.0834C461.213 29.2972 461.347 33.9998 460.116 35.9015C460.308 36.1804 460.466 36.4743 460.585 36.7921C461.53 39.3232 460.981 65.399 460.477 69.3647C460.311 70.7625 460.038 72.1385 459.657 73.4927C459.275 74.8476 458.791 76.1644 458.203 77.4431C455.811 82.5415 451.707 86.1036 446.424 87.9999C439.639 90.4339 430.042 90.2153 423.505 87.0984C410.737 81.0125 411.339 66.8926 411.417 54.8085L411.541 35.8246C411.551 33.0227 412.027 28.7041 411.072 26.0944C411.061 26.0646 411.05 26.0351 411.038 26.0055Z" fill="#EBEBE2"/>
<path d="M770.783 25.7047C771.366 26.0166 771.784 26.4192 772.238 26.8927C777.183 32.0485 801.421 62.7924 801.336 67.1862C801.354 67.1463 801.373 67.1073 801.39 67.0665C801.65 66.4707 801.935 65.9356 802.091 65.2936C802.868 62.0824 802.644 32.1 802.227 27.611C802.162 26.9205 801.926 26.3204 801.563 25.7341L812.883 25.718C813.271 26.3405 813.513 26.9642 813.571 27.6995C814.347 37.653 813.645 48.2078 813.642 58.2179C813.64 67.9697 814.414 78.3688 813.433 88.0205C812.52 88.5719 810.18 88.2527 809.074 88.2327L803.001 88.24C803.09 87.8192 803.109 87.3594 802.981 86.9441C801.295 81.4938 775.793 45.3868 772.159 43.3643C772.433 43.9056 772.647 44.4922 772.754 45.0908C773.63 50.0649 772.92 56.4172 772.927 61.5156C772.936 69.6792 773.554 78.4023 772.821 86.5124C772.763 87.1635 772.546 87.6968 772.176 88.2327L761.02 88.2191C761.18 87.9725 761.316 87.7128 761.427 87.4401C762.37 85.1204 762.02 27.8719 761.239 26.0055C764.268 25.3931 767.693 25.6904 770.783 25.7047Z" fill="#EBEBE2"/>
<path d="M354.01 25.7092C358.871 28.5137 374.796 51.384 379.094 57.407C380.666 59.6114 385.132 64.8666 384.692 67.5102C384.708 67.4684 384.725 67.4267 384.742 67.385C384.937 66.8708 385.17 66.3938 385.314 65.8578C386.231 62.439 385.928 32.5466 385.514 27.621C385.455 26.9248 385.233 26.3142 384.888 25.7111L395.96 25.7161C396.353 26.342 396.612 27.0292 396.673 27.7697C397.377 36.3361 396.746 45.531 396.75 54.1597C396.757 65.2548 397.347 76.7366 396.576 87.7877C395.553 88.505 393.545 88.2166 392.268 88.2338L386.527 88.2474C386.564 87.9981 386.553 87.7722 386.483 87.531C385.012 82.4916 359.546 45.851 355.395 43.6747C355.673 44.1666 355.88 44.6868 356.016 45.2353C356.78 48.2925 356.538 81.4704 356.143 86.2578C356.083 86.9887 355.857 87.6126 355.475 88.2347L344.102 88.2175C344.24 88.0029 344.36 87.7789 344.461 87.5455C345.322 85.5976 345.304 28.2829 344.415 26.0052C347.462 25.394 350.902 25.6928 354.01 25.7092Z" fill="#EBEBE2"/>
<path d="M538.383 25.1453C546.332 24.4235 555.692 24.855 562.945 28.4144C567.304 30.5538 570.581 33.8865 572.16 38.5293C573.738 43.1644 573.654 48.6568 571.457 53.0791C569.026 57.9763 565.007 60.6805 559.949 62.3791C560.504 62.7092 560.957 63.1109 561.39 63.5861C564.508 67.0068 576.35 83.9933 576.156 88.2465L563.443 88.2284C563.492 88.0216 563.524 87.8094 563.498 87.5963C563.275 85.7944 561.024 82.6548 559.657 81.513C559.664 81.3039 559.655 81.0956 559.629 80.8882C559.317 78.4696 550.484 66.3276 548.306 64.5791C545.125 64.7251 541.892 64.6245 538.704 64.6426C538.813 64.8941 538.906 65.1514 538.984 65.4144C539.857 68.3608 539.886 85.7155 538.509 88.2329L527.247 88.2166C527.423 87.9636 527.575 87.6852 527.674 87.3922C528.455 85.0897 528.147 34.0588 527.847 28.5744C527.804 27.798 527.598 27.1184 527.25 26.4261C530.972 26.1363 534.679 25.6111 538.383 25.1453Z" fill="#EBEBE2"/>
<path d="M539.146 35.0409C544.034 34.8071 549.576 34.3668 554.297 35.9371C556.714 36.7407 558.888 38.1844 560.049 40.5192C561.218 42.8713 561.51 46.2018 560.636 48.6923C559.936 50.686 558.69 52.0332 556.797 52.9292C556.701 53.1043 556.596 53.2682 556.453 53.4096C553.976 55.8535 542.212 55.4255 538.566 55.4026C540.384 52.0913 539.369 39.2634 539.146 35.0409Z" fill="#1B0C58"/>
<path d="M716.903 24.285C717.048 24.2694 717.194 24.2585 717.341 24.2523C725.273 23.9353 733.15 26.1064 739.085 31.534C745.604 37.4946 748.708 46.3046 749.093 54.9804C749.497 64.0849 747.23 73.6985 740.926 80.5554C735.445 86.518 727.971 89.137 720.034 89.4708C712.976 90.1464 705.054 87.472 699.542 83.1064C693.274 78.1404 689.73 70.1482 688.836 62.3301C687.736 52.7068 689.375 42.6649 695.529 34.9338C701.001 28.0597 708.399 25.2498 716.903 24.285Z" fill="#EBEBE2"/>
<path d="M714.748 34.6105C720.13 34.118 724.925 34.2582 729.41 37.6398C733.804 40.9529 736.109 46.3098 736.876 51.6384C737.88 58.6058 737.131 66.965 732.783 72.7644C730.03 76.4345 726.034 78.6064 721.531 79.2548C721.46 79.2866 721.372 79.3301 721.295 79.3537C718.503 80.1726 713.858 79.3664 711.323 78.1766C706.786 76.0472 703.614 71.9772 701.953 67.3187C699.462 60.3376 699.636 51.2692 702.83 44.5357C705.418 39.0816 709.17 36.5852 714.748 34.6105Z" fill="#1B0C58"/>
</g>
<defs>
<clipPath id="clip0_1416_336">
<rect width="831" height="107" fill="white"/>
</clipPath>
</defs>
</svg>
